<svg width="107" height="101" viewBox="0 0 107 101" fill="none" xmlns="http://www.w3.org/2000/svg">
<rect width="106.437" height="100.468" rx="13.9263" fill="#C8C8C8" fill-opacity="0.8"/>
<path d="M18.0713 29.3448C18.0713 25.5634 19.5735 21.9368 22.2473 19.263C24.9212 16.5891 28.5478 15.0869 32.3292 15.0869H75.1029C78.8843 15.0869 82.5108 16.5891 85.1847 19.263C87.8586 21.9368 89.3608 25.5634 89.3608 29.3448V72.1185C89.3608 75.8999 87.8586 79.5265 85.1847 82.2003C82.5108 84.8742 78.8843 86.3764 75.1029 86.3764H32.3292C28.5478 86.3764 24.9212 84.8742 22.2473 82.2003C19.5735 79.5265 18.0713 75.8999 18.0713 72.1185V29.3448Z" stroke="white" stroke-width="7.12895" stroke-linecap="round" stroke-linejoin="round"/>
<path d="M41.2399 47.1676C46.1614 47.1676 50.1511 43.1779 50.1511 38.2564C50.1511 33.3349 46.1614 29.3452 41.2399 29.3452C36.3184 29.3452 32.3287 33.3349 32.3287 38.2564C32.3287 43.1779 36.3184 47.1676 41.2399 47.1676Z" stroke="white" stroke-width="7.12895" stroke-linecap="round" stroke-linejoin="round"/>
<path d="M62.7194 52.9443L32.3287 86.3755H75.5765C79.2322 86.3755 82.7382 84.9233 85.3231 82.3383C87.9081 79.7533 89.3603 76.2473 89.3603 72.5916V72.1176C89.3603 70.4565 88.7365 69.8185 87.6137 68.5887L73.2489 52.9229C72.5794 52.1926 71.765 51.6098 70.8578 51.2118C69.9505 50.8138 68.9702 50.6093 67.9795 50.6113C66.9887 50.6134 66.0093 50.8219 65.1036 51.2235C64.198 51.6252 63.386 52.2113 62.7194 52.9443Z" stroke="white" stroke-width="7.12895" stroke-linecap="round" stroke-linejoin="round"/>
</svg>
